<svg viewBox="0 0 128 128" xmlns="http://www.w3.org/2000/svg"><linearGradient id="a" gradientTransform="matrix(.56 0 0 -.57 -451.49 -71.88)" gradientUnits="userSpaceOnUse" x1="797.75" x2="906.76" y1="-132.18" y2="-225.98"><stop offset="0" stop-color="#5a9fd4"/><stop offset="1" stop-color="#306998"/></linearGradient><linearGradient id="b" gradientTransform="matrix(.56 0 0 -.57 -451.49 -71.88)" gradientUnits="userSpaceOnUse" x1="948.91" x2="909.98" y1="-282.74" y2="-227.66"><stop offset="0" stop-color="#ffd43b"/><stop offset="1" stop-color="#ffe873"/></linearGradient><path d="m54.92 0a76.59 76.59 0 0 0 -12.81 1.09c-11.35 2.01-13.41 6.2-13.41 13.91v10.25h26.81v3.41h-36.87c-7.79 0-14.64 4.68-16.75 13.59-2.46 10.21-2.57 16.59 0 27.25 1.9 7.94 6.46 13.59 14.25 13.59h9.22v-12.25a17 17 0 0 1 16.75-16.65h26.78a13.51 13.51 0 0 0 13.4-13.63v-25.56c0-7.26-6.13-12.72-13.4-13.94a84.56 84.56 0 0 0 -13.97-1.06zm-14.5 8.22a5.11 5.11 0 1 1 -5 5.12 5.09 5.09 0 0 1 5-5.12z" fill="url(#a)"/><path d="m85.64 28.66v11.9c0 9.23-7.83 17-16.75 17h-26.78a13.68 13.68 0 0 0 -13.41 13.63v25.53c0 7.27 6.32 11.54 13.41 13.62a44.79 44.79 0 0 0 26.78 0c6.75-2 13.4-5.88 13.4-13.62v-10.22h-26.78v-3.41h40.19c7.79 0 10.7-5.43 13.41-13.59 2.8-8.4 2.68-16.47 0-27.25-1.93-7.76-5.61-13.59-13.41-13.59zm-15.06 64.65a5.11 5.11 0 1 1 -5 5.1 5.07 5.07 0 0 1 5-5.1z" fill="url(#b)"/></svg>
